<svg width="103" height="19" viewBox="0 0 103 19" fill="none" xmlns="http://www.w3.org/2000/svg">
    <path fill-rule="evenodd" clip-rule="evenodd" d="M13.5874 0.00188098L15.0912 15.4861C16.2904 15.4155 17.5149 15.376 18.7657 15.3732L18.7704 0.00188098L13.5874 0V0.00188098Z" fill="#66B24C"/>
    <path fill-rule="evenodd" clip-rule="evenodd" d="M13.5804 0L12.0521 15.7795C13.0415 15.6704 14.0544 15.5839 15.0871 15.5209L13.5814 0H13.5804Z" fill="#FFD900"/>
    <path fill-rule="evenodd" clip-rule="evenodd" d="M0 0.00188098L0.0075239 18.7383C3.19766 17.3426 7.35179 16.3024 12.0524 15.7814L13.5806 0.00188098V0L0 0.00188098Z" fill="#004FB6"/>
    <path fill-rule="evenodd" clip-rule="evenodd" d="M90.2775 0V0.000940488V0.483411C90.7637 0.585924 91.8236 0.881237 91.3938 1.83583L85.3888 15.297H88.562L90.4402 11.1006H97.0941L98.74 15.297H102.917L96.9512 0H90.2775ZM93.9924 3.18355L96.3511 9.20079H91.2941L93.9924 3.18355Z" fill="#004FB6"/>
    <path fill-rule="evenodd" clip-rule="evenodd" d="M82.9191 0L78.2486 11.2163L73.8029 0H68.1431V0.48247C68.7967 0.608496 69.5303 0.889701 69.8651 1.73614L75.2381 15.2961H79.5625L85.9314 0H82.9191Z" fill="#004FB6"/>
    <path fill-rule="evenodd" clip-rule="evenodd" d="M60.193 0V0.48247C60.525 0.542661 61.7147 0.889701 61.7147 1.73614V15.2961H65.7428V0H60.193Z" fill="#004FB6"/>
    <path fill-rule="evenodd" clip-rule="evenodd" d="M54.9978 0L50.3273 11.2163L45.8817 0H40.2218V0.48247C40.8764 0.608496 41.609 0.889701 41.9448 1.73614L47.3159 15.2961H51.6412L58.0121 0H54.9978Z" fill="#004FB6"/>
    <path fill-rule="evenodd" clip-rule="evenodd" d="M28.5195 0V0.48247C29.0067 0.584983 30.0647 0.880297 29.6358 1.83489L23.6299 15.2961H26.8031L28.6841 11.0996H35.338L36.9829 15.2961H41.1559L35.1951 0H28.5195ZM32.2343 3.18261L34.5931 9.19985H29.5361L32.2343 3.18261Z" fill="#004FB6"/>
</svg>
